<?xml version="1.0" encoding="UTF-8"?>
<svg id="Calque_1" data-name="Calque 1" xmlns="http://www.w3.org/2000/svg" viewBox="0 0 24 24">
  <defs>
    <style>
      .cls-1 {
        fill: #8c7e77;
        fill-rule: evenodd;
        stroke-width: 0px;
      }
    </style>
  </defs>
  <g id="SVGRepo_iconCarrier" data-name="SVGRepo iconCarrier">
    <path class="cls-1" d="m3,6c0-.55.45-1,1-1h16c.55,0,1,.45,1,1s-.45,1-1,1H4c-.55,0-1-.45-1-1Zm0,6c0-.55.45-1,1-1h16c.55,0,1,.45,1,1s-.45,1-1,1H4c-.55,0-1-.45-1-1Zm0,6c0-.55.45-1,1-1h16c.55,0,1,.45,1,1s-.45,1-1,1H4c-.55,0-1-.45-1-1Z"/>
  </g>
</svg>