<?xml version="1.0" encoding="UTF-8"?>
<svg id="Calque_1" data-name="Calque 1" xmlns="http://www.w3.org/2000/svg" viewBox="0 0 200 200">
  <defs>
    <style>
      .cls-1 {
        fill: #8c7e77;
      }

      .cls-1, .cls-2 {
        stroke-width: 0px;
      }

      .cls-2 {
        fill: #fff;
      }
    </style>
  </defs>
  <ellipse class="cls-1" cx="100" cy="100" rx="47.53" ry="75.25"/>
  <g>
    <path class="cls-2" d="m111.51,114.41h-.42c-2.38-2.8-2.97-8.16-2.97-26.43,0-8.16.42-16.99.76-20.22l-.17-.17c-1.61,3.57-6.97,17-13.77,35.35-1.02,2.63-1.61,4.59-1.61,7.14-1.27,1.36-1.79,2.04-3.14,3.74l-.51.17-.42-.25c-2.38-10.54-5.86-30.08-7.82-45.89l-.25.09c-3.31,17.16-5.78,29.23-9.43,42.49,1.1,0,2.12-.17,3.31-.76l.6.08.09.6c-2.55,3.91-3.48,3.99-9.26,4.16l-.17-.43c2.89-4.5,8.58-27.53,12.07-43.93.68-3.23,1.27-6.46,1.27-7.31,0-.94-.08-1.53-.25-2.04l.34-.51c1.87-.93,4.5-2.46,6.2-3.57l.6.09.09.6c-.6.93-.94,1.95-.94,2.8,0,3.31,3.65,30.93,6.63,44.02l.17.17c4.42-12.58,6.88-19.46,14.53-40.19.76-1.95.68-3.06,1.53-3.65.94-.68,3.14-2.12,5.95-3.82l.6.09.09.6c-1.36,2.38-2.38,10.03-2.38,29.57,0,11.05-.29,20.76.73,22.63"/>
    <path class="cls-2" d="m133.69,138.36c-1.95,1.7-5.61,4.5-6.97,4.5-2.04,0-2.8-3.31-4.5-23.71-1.95,2.46-4.25,2.46-7.56,2.46-2.04,0-4.84.09-6.88.76-3.91,8.07-7.31,13-10.54,16.65,2.55-.34,3.99-1.19,3.99-1.19l.68.09.08.68c-2.46,2.38-4.25,3.14-5.35,3.57-1.02.34-2.8.77-5.69,1.1l-.6-.08-.08-.6c6.63-4.67,8.58-7.82,17.84-27.53,2.8-5.95,8.67-20.22,11.64-26.43.68-1.36,2.89-2.72,6.03-4.59l.68.09.09.68c-1.02.94-1.44,1.79-1.44,2.89,0,1.95.25,11.81,1.7,28.72l.17,2.04c1.27,15.29,2.29,20.14,3.4,20.14.76,0,1.36-.34,2.72-1.1l.6.17v.68Zm-12.92-44.27h-.17c-2.72,5.78-7.56,17.59-11.22,24.98,1.7-.68,3.82-.85,5.52-.85,3.57,0,5.61-.08,7.22-.68-.76-10.2-1.27-17.67-1.36-23.45Z"/>
  </g>
</svg>