<?xml version="1.0" encoding="UTF-8"?>
<svg id="Calque_1" data-name="Calque 1" xmlns="http://www.w3.org/2000/svg" viewBox="0 0 200 200">
  <defs>
    <style>
      .cls-1 {
        fill: #8c7e77;
        stroke-width: 0px;
      }

      .cls-2 {
        fill: none;
        stroke: #8c7e77;
        stroke-miterlimit: 10;
        stroke-width: 2.62px;
      }
    </style>
  </defs>
  <ellipse class="cls-2" cx="100" cy="100" rx="62.21" ry="98.5"/>
  <g>
    <path class="cls-1" d="m115.07,118.87h-.56c-3.11-3.67-3.89-10.68-3.89-34.59,0-10.68.56-22.24,1-26.47l-.22-.22c-2.11,4.67-9.12,22.25-18.02,46.27-1.33,3.45-2.11,6.01-2.11,9.34-1.67,1.78-2.34,2.67-4.12,4.89l-.67.22-.56-.33c-3.11-13.79-7.68-39.38-10.23-60.06l-.33.11c-4.34,22.47-7.56,38.26-12.35,55.61,1.45,0,2.78-.22,4.34-1l.78.11.11.78c-3.34,5.12-4.56,5.23-12.12,5.45l-.22-.56c3.78-5.89,11.23-36.04,15.79-57.5.89-4.23,1.67-8.45,1.67-9.57,0-1.22-.11-2-.33-2.67l.45-.67c2.45-1.22,5.89-3.23,8.12-4.67l.78.11.11.78c-.78,1.22-1.22,2.56-1.22,3.67,0,4.34,4.78,40.49,8.68,57.62l.22.22c5.78-16.46,9.01-25.47,19.02-52.61,1-2.56.89-4,2-4.78,1.22-.89,4.12-2.78,7.79-5.01l.78.11.11.78c-1.78,3.11-3.11,13.12-3.11,38.71,0,14.46-.38,27.18.96,29.62"/>
    <path class="cls-1" d="m144.1,150.21c-2.56,2.22-7.34,5.9-9.12,5.9-2.67,0-3.67-4.34-5.9-31.03-2.56,3.23-5.56,3.23-9.9,3.23-2.67,0-6.34.11-9.01,1-5.12,10.57-9.57,17.02-13.79,21.8,3.34-.45,5.23-1.56,5.23-1.56l.89.11.11.89c-3.22,3.11-5.56,4.11-7.01,4.67-1.33.45-3.67,1-7.45,1.45l-.78-.11-.11-.78c8.67-6.12,11.23-10.23,23.36-36.04,3.67-7.79,11.34-26.47,15.24-34.59.89-1.78,3.78-3.56,7.9-6.01l.89.11.11.89c-1.33,1.22-1.89,2.34-1.89,3.78,0,2.56.33,15.46,2.22,37.59l.22,2.67c1.67,20.02,3,26.36,4.45,26.36,1,0,1.78-.45,3.56-1.45l.78.22v.89Zm-16.91-57.95h-.22c-3.56,7.56-9.9,23.02-14.68,32.7,2.22-.89,5.01-1.11,7.23-1.11,4.67,0,7.34-.11,9.45-.89-1-13.35-1.67-23.14-1.78-30.7Z"/>
  </g>
</svg>