<?xml version="1.0" encoding="UTF-8"?>
<svg id="Calque_1" data-name="Calque 1" xmlns="http://www.w3.org/2000/svg" viewBox="0 0 200 200">
  <defs>
    <style>
      .cls-1 {
        fill: #fff;
        stroke-width: 0px;
      }

      .cls-2 {
        fill: none;
        stroke: #fff;
        stroke-miterlimit: 10;
        stroke-width: 2.55px;
      }
    </style>
  </defs>
  <ellipse class="cls-2" cx="100" cy="100" rx="60.63" ry="96"/>
  <g>
    <path class="cls-1" d="m114.69,118.39h-.54c-3.03-3.58-3.79-10.41-3.79-33.71,0-10.41.54-21.68.98-25.8l-.22-.22c-2.06,4.55-8.89,21.68-17.56,45.1-1.3,3.36-2.06,5.85-2.06,9.11-1.63,1.73-2.28,2.6-4.01,4.77l-.65.22-.54-.33c-3.03-13.44-7.48-38.38-9.97-58.54l-.33.11c-4.23,21.9-7.37,37.29-12.03,54.2,1.41,0,2.71-.22,4.23-.98l.76.11.11.76c-3.25,4.99-4.45,5.1-11.82,5.31l-.22-.54c3.69-5.74,10.95-35.12,15.39-56.04.87-4.12,1.63-8.24,1.63-9.32,0-1.19-.11-1.95-.33-2.6l.43-.65c2.38-1.19,5.74-3.14,7.91-4.55l.76.11.11.76c-.76,1.19-1.19,2.49-1.19,3.58,0,4.23,4.66,39.46,8.46,56.15l.22.22c5.64-16.04,8.78-24.82,18.54-51.27.98-2.49.87-3.9,1.95-4.66,1.19-.87,4.01-2.71,7.59-4.88l.76.11.11.76c-1.73,3.03-3.03,12.79-3.03,37.72,0,14.09-.37,26.49.93,28.87"/>
    <path class="cls-1" d="m142.98,148.93c-2.49,2.17-7.15,5.75-8.89,5.75-2.6,0-3.58-4.23-5.75-30.24-2.49,3.14-5.42,3.14-9.65,3.14-2.6,0-6.18.11-8.78.98-4.99,10.3-9.32,16.59-13.44,21.25,3.25-.43,5.09-1.52,5.09-1.52l.87.11.11.87c-3.14,3.03-5.42,4.01-6.83,4.55-1.3.43-3.58.98-7.26,1.41l-.76-.11-.11-.76c8.45-5.96,10.95-9.97,22.76-35.12,3.58-7.59,11.06-25.8,14.85-33.71.87-1.73,3.69-3.47,7.7-5.85l.87.11.11.87c-1.3,1.19-1.84,2.28-1.84,3.69,0,2.49.33,15.07,2.17,36.64l.22,2.6c1.63,19.51,2.93,25.69,4.34,25.69.98,0,1.73-.43,3.47-1.41l.76.22v.87Zm-16.48-56.48h-.22c-3.47,7.37-9.65,22.44-14.31,31.87,2.17-.87,4.88-1.08,7.05-1.08,4.55,0,7.15-.11,9.21-.87-.98-13.01-1.63-22.55-1.73-29.92Z"/>
  </g>
</svg>